<?xml version="1.0" encoding="utf-8"?>
<!-- Generator: Adobe Illustrator 25.3.1, SVG Export Plug-In . SVG Version: 6.00 Build 0)  -->
<svg version="1.1" id="Layer_1" xmlns="http://www.w3.org/2000/svg" xmlns:xlink="http://www.w3.org/1999/xlink" x="0px" y="0px"
	 viewBox="0 0 390.35 500" style="enable-background:new 0 0 390.35 500;" xml:space="preserve">
<style type="text/css">
	.st0{fill:#64608D;}
	.st1{fill:#332F4C;}
	.st2{opacity:0.6;fill:#64608D;}
	.st3{fill:#EA632D;}
	.st4{fill:#82361A;}
	.st5{fill:#A21E21;}
	.st6{fill:#FFFFFF;}
	.st7{fill:#B9BABC;}
	.st8{fill:#AF91B5;}
	.st9{opacity:0.7;}
	.st10{opacity:0.8;fill:#64608D;}
	.st11{opacity:0.7;fill:#64608D;}
	.st12{fill:#5CC5C5;}
	.st13{fill:#0A96A7;}
	.st14{fill:#447999;}
	.st15{fill:#5B210D;}
	.st16{fill:#843823;}
	.st17{fill:#2B1010;}
	.st18{fill:#CBCCCE;}
</style>
<g>
	<g>
		<g>
			<g>
				<g>
					<path class="st0" d="M344.84,342.21c-7.78-14.35-14.92-28.96-18.73-44.97c-10.19-42.81,2.29-89.73,9.59-131.97
						c6.38-36.88,12.04-84.34-4.13-119.63c-7.99-17.43-26.51-32.67-45.03-38.11c-16.15-4.74-36.09-4.43-52.64-2.24
						c-33.68,4.49-67.3,3.46-101.12,4.64c-24.91,0.87-53.12,4.75-74.35,18.85c-12.16,8.08-22.69,21.47-28.71,34.78
						c-13.79,30.49-10.07,65.15-3.74,96.96c7.85,39.45,20.5,78.01,25.1,118.07c2.92,25.54,2.29,51.34-4.42,76.25
						c-9.01,33.46-56.87,99.33-9.84,126.37c27.44,15.77,215.74,22.38,286.08,3.63c17.59-4.69,31.64-15.14,41.76-30.39
						c9.12-13.74,12.7-39.78,7.68-55.6C365.96,378.77,354.86,360.71,344.84,342.21z"/>
					<path class="st1" d="M174.19,497.57c0,0,0,0-0.01,0c-67.3-0.87-124.07-7.1-138.07-15.14c-36.88-21.2-17.58-64.63-2.07-99.53
						c4.69-10.56,9.13-20.53,11.25-28.43c6.15-22.87,7.58-47.64,4.37-75.73c-2.86-25.01-8.99-49.88-14.93-73.92
						c-3.54-14.39-7.21-29.27-10.15-44.03c-6.11-30.68-10.42-66.31,3.84-97.82c6.47-14.29,17.39-27.51,29.22-35.37
						C75.25,15.9,99.82,9.65,132.73,8.51c9.67-0.34,19.48-0.5,28.96-0.65c23.63-0.38,48.05-0.79,72.01-3.97
						c8.44-1.12,16.75-1.64,24.69-1.54c10.78,0.13,20.38,1.43,28.54,3.83c19.43,5.7,37.87,21.33,45.92,38.89
						c16.14,35.19,10.75,82.86,4.25,120.46c-1.2,6.91-2.54,13.97-3.89,21.11c-6.97,36.76-14.17,74.78-5.72,110.28
						c3.85,16.14,11.21,30.99,18.59,44.62c1.83,3.37,3.69,6.72,5.55,10.08c8.25,14.87,16.79,30.25,22.05,46.82
						c5.14,16.21,1.47,42.75-7.86,56.8c-10.49,15.81-24.82,26.23-42.59,30.98C293.51,494.14,237.77,498.39,174.19,497.57z
						 M258.36,5.18c-7.81-0.11-15.99,0.41-24.28,1.52c-24.14,3.21-48.64,3.6-72.35,3.99c-9.47,0.16-19.27,0.32-28.92,0.65
						c-32.37,1.12-56.45,7.22-73.61,18.61C47.8,37.53,37.26,50.3,30.99,64.14c-13.92,30.77-9.65,65.85-3.63,96.1
						c2.92,14.7,6.57,29.55,10.12,43.9c5.94,24.14,12.1,49.1,14.98,74.29c3.25,28.45,1.8,53.56-4.45,76.77
						c-2.19,8.12-6.66,18.19-11.4,28.85c-15.05,33.86-33.78,76,0.88,95.93c13.62,7.82,69.84,13.89,136.7,14.76
						c63.36,0.81,118.79-3.39,148.3-11.27c17.08-4.55,30.86-14.6,40.95-29.8c8.93-13.45,12.44-38.87,7.5-54.38
						c-5.17-16.29-13.64-31.54-21.82-46.3c-1.87-3.36-3.73-6.73-5.56-10.1c-7.48-13.81-14.94-28.84-18.87-45.32
						c-8.59-36.09-1.32-74.41,5.69-111.47c1.35-7.11,2.69-14.16,3.88-21.06c6.45-37.19,11.79-84.3-4.02-118.8
						c-7.61-16.6-25.76-31.95-44.15-37.35C278.22,6.56,268.88,5.32,258.36,5.18z"/>
				</g>
				<path class="st2" d="M212.01,374.63c-18.04-0.81-36.04-3.23-53.73-6.82c-20.77-4.21-42.48-9.13-61.3-20.36
					c-35.57-21.21-28.23,50.51,30.37,68.92c32.12,10.08,66.73,10.31,99.8,7.78c17.27-1.32,34.19-5.05,50.82-10.4
					c12.89-4.13,25.62-9.08,35.81-19.29c5.17-5.19,11.35-12.28,11.26-20.66c-0.08-8.91-6.56-14.02-14.1-12.88
					c-16.39,2.46-32.18,8.47-48.51,11.33C245.84,375.14,228.75,375.4,212.01,374.63z"/>
				<g>
					<g>
						<g>
							<path class="st3" d="M210.62,381.74c-14.99-0.63-29.96-2.44-44.66-5.1c-17.27-3.12-35.32-6.77-50.96-15.05
								c-29.58-15.65-23.39,37.13,25.32,50.74c26.71,7.47,55.47,7.7,82.94,5.86c14.36-0.96,28.41-3.68,42.22-7.59
								c10.7-3.02,21.27-6.66,29.72-14.16c4.3-3.79,9.42-9.02,9.34-15.18c-0.09-6.54-5.46-10.32-11.73-9.49
								c-13.63,1.79-26.73,6.19-40.3,8.27C238.72,382.15,224.54,382.33,210.62,381.74z"/>
							<path class="st4" d="M192.8,420.54c-20.03-0.26-37.32-2.49-52.86-6.83c-31.51-8.81-46.06-33.71-44.08-47.55
								c0.81-5.62,4.46-8.93,9.78-8.86c2.91,0.04,6.29,1.05,10.03,3.03c15.29,8.09,32.63,11.67,50.55,14.91
								c15.28,2.77,30.24,4.48,44.47,5.07c3.16,0.12,6.33,0.24,9.51,0.28c12.06,0.15,22.55-0.49,32.1-1.95
								c6.32-0.98,12.69-2.48,18.82-3.95c6.99-1.65,14.22-3.37,21.51-4.35c7.51-0.97,13.25,3.85,13.35,10.9
								c0.08,6.64-5.2,12.18-9.82,16.26c-9,7.99-20.35,11.65-30.27,14.46c-14.97,4.22-28.87,6.73-42.52,7.64
								C212.11,420.36,202.11,420.66,192.8,420.54z M105.6,360.15c-4.96-0.07-6.51,3.45-6.95,6.43
								c-1.62,11.26,11.05,35.74,42.05,44.4c15.3,4.27,32.34,6.48,52.12,6.73c9.24,0.12,19.17-0.19,30.35-0.93
								c13.44-0.9,27.17-3.36,41.93-7.54c9.63-2.71,20.6-6.26,29.17-13.85c4.16-3.67,8.93-8.61,8.85-14.1
								c-0.07-5.37-4.35-8.89-10.14-8.11c-7.15,0.94-14.29,2.63-21.22,4.29c-6.19,1.48-12.61,3-19.04,3.99
								c-9.71,1.49-20.37,2.14-32.58,1.98c-3.21-0.04-6.41-0.14-9.6-0.28c-14.35-0.6-29.44-2.32-44.85-5.11
								c-18.14-3.29-35.73-6.92-51.37-15.19C111.01,361.08,108.06,360.18,105.6,360.15z"/>
						</g>
						<path class="st5" d="M266.43,399.39c-19.16-4.84-38.94-7.22-58.73-6.72c-21.72,0.54-43.56,3.54-64.48,9.49
							c-4.59,1.3-10.66,2.75-16.83,4.7c4.19,2.17,8.81,4.05,13.93,5.48c26.71,7.47,55.47,7.7,82.94,5.86
							c14.36-0.96,28.41-3.68,42.22-7.59c6.05-1.71,12.06-3.65,17.67-6.33C277.48,402.33,271.79,400.74,266.43,399.39z"/>
						<g>
							<path class="st6" d="M130.83,392.47c6.94-4.89,11.89-12.19,16.37-19.59c-9.52-2.2-18.93-5.03-27.71-9.1
								C118.04,377.37,117.98,401.51,130.83,392.47z"/>
							<path class="st6" d="M159.32,394.5c1.71,8.05,7.2,13.86,14.24,7.07c5.78-5.58,11.05-13.52,14.54-21.62
								c-7.43-0.86-14.81-1.97-22.13-3.3c-1.98-0.36-3.99-0.73-6-1.11C158.91,381.91,158.01,388.39,159.32,394.5z"/>
							<path class="st6" d="M198.99,396.02c1.35,5.72,6.53,14.71,12.62,7.87c4.81-5.38,8.31-13.86,9.81-21.88
								c-3.61-0.04-7.21-0.12-10.79-0.28c-4.28-0.19-8.54-0.51-12.81-0.89C197.87,385.94,197.84,391.08,198.99,396.02z"/>
							<path class="st6" d="M234.8,393.48c3.32,5.74,11.55,13.85,16.37,4.84c2.94-5.49,4.42-12.2,4.95-18.92
								c-1.2,0.22-2.4,0.45-3.61,0.63c-7.38,1.14-14.88,1.68-22.39,1.88C231.31,385.95,232.73,389.9,234.8,393.48z"/>
							<path class="st6" d="M284.37,389.06c2.26-4.84,3.92-10.77,4.72-16.74c-8.26,1.36-16.39,3.52-24.56,5.35
								C269.97,387.7,278.91,400.74,284.37,389.06z"/>
						</g>
					</g>
					<g>
						<path class="st7" d="M135,376.02c2.95,0.71,5.91,1.44,8.87,2.15c1.15-1.74,2.25-3.52,3.33-5.29
							c-9.52-2.2-18.93-5.03-27.71-9.1c-0.2,1.77-0.36,3.72-0.48,5.76C124.11,372.08,129.14,374.59,135,376.02z"/>
						<path class="st7" d="M185.99,384.37c0.75-1.46,1.47-2.94,2.11-4.42c-7.43-0.86-14.81-1.97-22.13-3.3
							c-1.98-0.36-3.99-0.73-6-1.11c-0.32,1.92-0.62,3.84-0.84,5.78C168.03,382.75,177.01,383.7,185.99,384.37z"/>
						<path class="st7" d="M212.89,385.66c2.54,0.08,5.1,0.13,7.65,0.17c0.34-1.27,0.65-2.56,0.88-3.81
							c-3.61-0.04-7.21-0.12-10.79-0.28c-4.28-0.19-8.54-0.51-12.81-0.89c0.02,1.41,0.04,2.82,0.07,4.23
							C202.87,385.33,207.88,385.51,212.89,385.66z"/>
						<path class="st7" d="M255.54,384.43c0.25-1.66,0.45-3.33,0.58-5.02c-1.2,0.22-2.4,0.45-3.61,0.63
							c-7.38,1.14-14.88,1.68-22.39,1.88c0.38,1.33,0.82,2.64,1.28,3.94C239.49,385.76,247.56,385.35,255.54,384.43z"/>
						<path class="st7" d="M288.29,376.97c0.33-1.54,0.6-3.08,0.8-4.65c-8.26,1.36-16.39,3.52-24.56,5.35
							c0.88,1.62,1.84,3.33,2.88,4.98C274.5,381.31,281.48,379.45,288.29,376.97z"/>
					</g>
				</g>
			</g>
		</g>
		<path class="st8" d="M176.64,339.42c-1.62-3.41-6.11-4.35-9.33-2.93c-0.1,0.04-0.22,0.11-0.33,0.15
			c-2.08,0.71-3.75,2.05-5.08,3.76c-0.32,0.37-0.6,0.77-0.84,1.17c-0.04,0.07-0.09,0.12-0.13,0.16c-1.52,2.5-3.01,5.62-2.22,8.6
			c0.85,3.24,5.17,3.34,7.81,2.96C172.87,352.39,179.9,346.25,176.64,339.42z"/>
		<path class="st8" d="M203.55,332.42c-1.04-0.8-2.48-0.29-3.54,0.53c-0.31-0.04-0.7,0.07-1.15,0.33c-1.31,0.75-2.29,2.23-2.54,3.69
			c-0.27,1.52,0.85,2.74,2.35,2.76c2.06,0.04,3.67-1.23,4.9-2.79C204.58,335.69,204.97,333.51,203.55,332.42z"/>
		<path class="st8" d="M210.41,349.48c-1.55-1.16-3.25-1.3-4.85-0.84c-0.69-0.32-1.5-0.45-2.43-0.29c-3.8,0.63-6.34,4.27-5.7,8
			c0.38,2.19,1.7,4.07,3.5,5.3c2.09,1.43,4.8,0.13,6.73-0.95C211.73,358.42,215.09,353,210.41,349.48z"/>
		<path class="st8" d="M241.75,311.43c-1.18-0.69-2.64-0.68-4.08-0.26c-1.36-0.34-2.76,0.38-3.83,1.18
			c-2.69,2.02-3.66,6.15-1.82,8.98c2.42,3.75,7.54,2.41,10.16-0.16C244.96,318.43,245.45,313.57,241.75,311.43z"/>
		<path class="st8" d="M301.35,312.75c0.5-1.61-0.74-3.1-2.18-4.04c-0.09-0.38-0.39-0.79-0.9-1.22c-1.47-1.23-3.68-1.77-5.53-1.44
			c-1.93,0.35-2.91,2.21-2.28,4.03c0.85,2.49,3.08,3.87,5.47,4.67C297.88,315.4,300.66,314.92,301.35,312.75z"/>
		<path class="st8" d="M268.46,349.97c0.72-2.38,0.15-4.47-1.09-6.19c0.08-0.97-0.12-2-0.71-3.04c-2.42-4.29-7.9-5.75-12.1-3.35
			c-2.46,1.4-4.14,3.8-4.83,6.51c-0.79,3.14,1.94,5.81,4.07,7.66C258.3,355.47,266.28,357.12,268.46,349.97z"/>
		<path class="st8" d="M312.06,333.46c0.3-1.73-0.34-3.47-1.47-5.01c-0.18-1.77-1.66-3.15-3.08-4.08
			c-3.59-2.37-8.97-1.72-11.57,1.71c-3.45,4.56,0.41,10.11,4.64,12.13C305.06,340.36,311.11,338.81,312.06,333.46z"/>
		<path class="st8" d="M105.47,311.98c1.8-4.86-1.53-10.21-6-12.04c-0.15-0.05-0.32-0.11-0.46-0.17c-2.68-1.37-5.61-1.76-8.58-1.43
			c-0.67,0.04-1.33,0.13-1.96,0.29c-0.1,0.02-0.2,0.02-0.29,0.04c-3.93,0.85-8.43,2.37-10.64,5.97c-2.39,3.96,1.62,8.31,4.53,10.57
			C89.02,320.61,101.82,321.72,105.47,311.98z"/>
		<path class="st8" d="M172.62,294.32c-0.21-1.79-2.08-2.7-3.91-3c-0.27-0.34-0.75-0.62-1.42-0.83c-1.99-0.57-4.4-0.12-6.07,1
			c-1.75,1.19-1.89,3.46-0.49,4.97c1.94,2.09,4.72,2.47,7.44,2.21C170.37,298.46,172.89,296.76,172.62,294.32z"/>
		<path class="st8" d="M139.48,325.61c-0.33-2.64-1.82-4.45-3.79-5.61c-0.34-0.98-0.99-1.91-2.04-2.68c-4.25-3.16-10.27-2.2-13.36,2
			c-1.8,2.45-2.4,5.56-1.9,8.5c0.58,3.45,4.45,4.89,7.34,5.77C131.89,335.46,140.46,333.59,139.48,325.61z"/>
		<path class="st8" d="M192.22,310.03c-0.46-1.83-1.87-3.27-3.66-4.29c-0.96-1.66-3.01-2.39-4.82-2.68
			c-4.55-0.75-9.57,2.24-10.63,6.77c-1.4,5.98,4.82,9.77,9.87,9.9C188.34,319.85,193.62,315.72,192.22,310.03z"/>
		<path class="st8" d="M277.31,83.55c-1.61-3.4-6.11-4.35-9.32-2.94c-0.1,0.04-0.21,0.11-0.33,0.16c-2.08,0.71-3.74,2.04-5.07,3.76
			c-0.32,0.38-0.6,0.76-0.85,1.17c-0.03,0.07-0.08,0.12-0.12,0.18c-1.52,2.49-3.01,5.62-2.22,8.58c0.85,3.26,5.17,3.34,7.81,2.97
			C273.55,96.51,280.57,90.37,277.31,83.55z"/>
		<path class="st8" d="M304.23,76.54c-1.04-0.79-2.48-0.28-3.55,0.53c-0.32-0.04-0.7,0.07-1.15,0.33c-1.3,0.75-2.28,2.24-2.54,3.69
			c-0.26,1.5,0.85,2.73,2.36,2.76c2.07,0.04,3.67-1.23,4.91-2.78C305.26,79.82,305.65,77.64,304.23,76.54z"/>
		<path class="st8" d="M311.09,93.6c-1.56-1.16-3.25-1.3-4.85-0.85c-0.69-0.31-1.51-0.44-2.44-0.29c-3.8,0.64-6.34,4.27-5.7,8
			c0.37,2.19,1.7,4.07,3.49,5.3c2.09,1.43,4.8,0.13,6.73-0.94C312.41,102.55,315.77,97.12,311.09,93.6z"/>
		<path class="st8" d="M322.34,74.2c-1.19-0.67-2.64-0.67-4.08-0.26c-1.35-0.33-2.76,0.39-3.83,1.18c-2.7,2.01-3.66,6.14-1.83,8.97
			c2.43,3.77,7.55,2.41,10.17-0.16C325.54,81.2,326.03,76.34,322.34,74.2z"/>
		<path class="st8" d="M208.46,41.95c1.81-4.86-1.53-10.2-5.99-12.05c-0.15-0.04-0.34-0.11-0.47-0.17
			c-2.69-1.38-5.61-1.76-8.58-1.44c-0.67,0.04-1.33,0.14-1.96,0.28c-0.1,0.02-0.2,0.02-0.29,0.04c-3.91,0.86-8.42,2.37-10.63,5.98
			c-2.39,3.96,1.63,8.31,4.53,10.57C192.01,50.58,204.8,51.69,208.46,41.95z"/>
		<path class="st8" d="M275.6,24.3c-0.19-1.79-2.08-2.71-3.9-3.01c-0.26-0.34-0.74-0.61-1.43-0.82c-1.98-0.58-4.39-0.13-6.07,1.01
			c-1.74,1.19-1.89,3.46-0.49,4.96c1.94,2.08,4.72,2.46,7.43,2.2C273.35,28.43,275.87,26.74,275.6,24.3z"/>
		<path class="st8" d="M242.46,55.58c-0.32-2.65-1.81-4.45-3.78-5.61c-0.34-0.97-0.99-1.91-2.04-2.68c-4.25-3.17-10.27-2.21-13.35,2
			c-1.81,2.45-2.41,5.55-1.91,8.51c0.58,3.45,4.45,4.88,7.34,5.76C234.88,65.43,243.45,63.56,242.46,55.58z"/>
		<path class="st8" d="M295.21,39.99c-0.46-1.83-1.86-3.27-3.65-4.28c-0.96-1.67-3-2.39-4.82-2.69c-4.55-0.75-9.57,2.24-10.63,6.77
			c-1.4,5.99,4.82,9.78,9.87,9.91C291.33,49.84,296.61,45.69,295.21,39.99z"/>
		<path class="st8" d="M54.78,448.42c1.82-4.85-1.53-10.2-6-12.03c-0.14-0.06-0.32-0.12-0.46-0.17c-2.69-1.38-5.61-1.78-8.57-1.44
			c-0.67,0.03-1.33,0.13-1.97,0.28c-0.1,0.02-0.19,0.02-0.28,0.04c-3.92,0.86-8.44,2.37-10.64,5.99c-2.4,3.95,1.62,8.3,4.52,10.57
			C38.34,457.05,51.12,458.15,54.78,448.42z"/>
		<path class="st8" d="M121.93,430.76c-0.2-1.79-2.09-2.71-3.91-3c-0.26-0.35-0.75-0.62-1.42-0.83c-1.99-0.56-4.39-0.12-6.07,1.02
			c-1.74,1.18-1.89,3.45-0.48,4.97c1.94,2.08,4.72,2.46,7.43,2.19C119.67,434.91,122.2,433.21,121.93,430.76z"/>
		<path class="st8" d="M88.79,462.05c-0.33-2.64-1.81-4.45-3.79-5.61c-0.34-0.98-1-1.91-2.03-2.69c-4.25-3.16-10.28-2.2-13.37,2
			c-1.79,2.46-2.4,5.56-1.91,8.52c0.59,3.44,4.46,4.88,7.36,5.77C81.21,471.9,89.77,470.04,88.79,462.05z"/>
		<path class="st8" d="M141.53,446.47c-0.45-1.83-1.86-3.29-3.65-4.29c-0.96-1.66-3-2.38-4.82-2.68c-4.57-0.75-9.57,2.24-10.62,6.77
			c-1.41,5.98,4.82,9.77,9.87,9.91C137.65,456.31,142.93,452.16,141.53,446.47z"/>
		<path class="st8" d="M340.66,448.48c2.63-2.57,6.15-7.33,3.33-11c-2.58-3.35-7.24-4.36-11.23-4.78c-0.09-0.02-0.19,0-0.29-0.02
			c-0.64-0.06-1.31-0.09-1.98-0.05c-3-0.01-5.86,0.7-8.37,2.37c-0.13,0.08-0.3,0.15-0.43,0.22c-4.24,2.33-6.98,8.01-4.64,12.63
			C321.75,457.12,334.34,454.62,340.66,448.48z"/>
		<path class="st8" d="M248.35,437.7c0-1.82,1.78-2.94,3.56-3.43c0.22-0.38,0.67-0.7,1.32-0.98c1.91-0.78,4.35-0.61,6.14,0.34
			c1.87,0.99,2.26,3.23,1.03,4.89c-1.7,2.27-4.41,2.97-7.13,3C251.06,441.55,248.35,440.14,248.35,437.7z"/>
		<path class="st8" d="M299.28,471.56c2.79-1.2,6.48-3.05,6.68-6.54c0.17-2.98-0.77-5.99-2.83-8.26c-3.52-3.82-9.62-4.12-13.5-0.51
			c-0.95,0.89-1.5,1.88-1.74,2.91c-1.83,1.35-3.11,3.32-3.15,5.98C284.64,473.18,293.35,474.09,299.28,471.56z"/>
		<path class="st8" d="M230.61,455.44c0.25-1.87,1.48-3.45,3.15-4.66c0.77-1.75,2.73-2.71,4.5-3.2c4.46-1.24,9.75,1.17,11.31,5.57
			c2.06,5.79-3.71,10.24-8.73,10.92C235.55,464.8,229.83,461.26,230.61,455.44z"/>
		<path class="st8" d="M134.21,39.05c1.62-3.3,3.34-8.98-0.56-11.48c-3.56-2.29-8.27-1.68-12.18-0.74c-0.09,0.03-0.17,0.08-0.27,0.1
			c-0.63,0.15-1.27,0.35-1.89,0.6c-2.83,1.01-5.28,2.64-7.09,5.06c-0.1,0.12-0.22,0.23-0.34,0.35c-3.21,3.61-3.87,9.89-0.12,13.45
			C119.31,53.55,130.32,46.95,134.21,39.05z"/>
		<path class="st8" d="M43.66,59.92c-0.61-1.7,0.69-3.35,2.19-4.41c0.08-0.43,0.39-0.88,0.92-1.37c1.53-1.37,3.89-2.04,5.89-1.75
			c2.09,0.3,3.23,2.28,2.61,4.26c-0.83,2.71-3.16,4.27-5.71,5.23C47.5,62.65,44.48,62.24,43.66,59.92z"/>
		<path class="st8" d="M102.99,74.7c2.22-2.07,5.07-5.05,4.09-8.41c-0.84-2.86-2.74-5.39-5.44-6.82
			c-4.61-2.42-10.45-0.65-12.89,4.05c-0.6,1.16-0.77,2.29-0.66,3.31c-1.27,1.91-1.81,4.17-0.95,6.7
			C89.76,81.15,98.28,79.08,102.99,74.7z"/>
		<path class="st8" d="M32.9,82.62c-0.39-1.85,0.24-3.76,1.41-5.45c0.13-1.92,1.66-3.46,3.16-4.52c3.78-2.67,9.59-2.17,12.52,1.43
			c3.88,4.77-0.06,10.9-4.54,13.22C40.7,89.76,34.13,88.35,32.9,82.62z"/>
		<path class="st0" d="M103.84,346.02c0,0,88.77,45.11,197,11.04C300.83,357.07,209.06,380,103.84,346.02z"/>
		<g class="st9">
			<path class="st2" d="M372.33,398.85c-6.37-20.08-17.47-38.14-27.49-56.63c-7.78-14.35-14.92-28.96-18.73-44.97
				c-10.19-42.81,2.29-89.73,9.59-131.97c6.38-36.88,12.04-84.34-4.13-119.63c-7.99-17.43-26.51-32.67-45.03-38.11
				c-16.15-4.74-36.09-4.43-52.64-2.24c-33.68,4.49-67.3,3.46-101.12,4.64c-24.91,0.87-53.12,4.75-74.35,18.85
				c-12.16,8.08-22.69,21.47-28.71,34.78c-13.79,30.49-10.07,65.15-3.74,96.96c7.85,39.45,20.5,78.01,25.1,118.07
				c2.92,25.54,2.29,51.34-4.42,76.25c-9.01,33.46-56.87,99.33-9.84,126.37c27.44,15.77,215.74,22.38,286.08,3.63
				c17.59-4.69,31.64-15.14,41.76-30.39C373.77,440.7,377.35,414.66,372.33,398.85z M341.38,431.22
				c-8.73,12.3-20.88,20.72-36.09,24.5c-60.8,15.1-223.58,9.61-247.32-3.14c-40.68-21.85,0.65-74.96,8.42-101.97
				c5.78-20.09,6.3-40.92,3.75-61.52c-4-32.34-14.97-63.46-21.78-95.3c-5.49-25.68-8.75-53.65,3.16-78.25
				c5.19-10.72,14.28-21.51,24.8-28.03c18.34-11.37,42.73-14.48,64.26-15.16c29.24-0.93,58.3-0.08,87.42-3.66
				c14.3-1.77,31.55-1.99,45.51,1.84c16.02,4.41,32.04,16.72,38.95,30.8c14.02,28.49,9.15,66.78,3.66,96.53
				c-6.28,34.1-17.02,71.95-8.2,106.5c3.32,12.93,9.51,24.71,16.24,36.3c8.69,14.93,18.28,29.52,23.81,45.74
				C352.32,399.13,349.25,420.15,341.38,431.22z"/>
			<path class="st10" d="M37.25,209.13c-3.36-17.41-6.81-34.81-8.6-52.49c-3-29.67-2.84-61.97,15.32-87.06
				c13.67-18.9,37.11-29.62,59.36-34.26c33.57-7.01,69.19-8.4,103.33-11c29.2-2.23,64.66-8.31,91.16,8.1
				c19.09,11.83,31.2,31.56,34.49,53.75c5.25,35.46,1.67,73.62-3.04,108.96c-0.83,6.14-1.66,12.31-2.4,18.47
				c2.71-16.47,6.11-32.72,8.81-48.34c6.38-36.88,12.04-84.34-4.13-119.63c-7.99-17.43-26.51-32.67-45.03-38.11
				c-16.15-4.74-36.09-4.43-52.64-2.24c-33.68,4.49-67.3,3.46-101.12,4.64c-24.91,0.87-53.12,4.75-74.35,18.85
				c-12.16,8.08-22.69,21.47-28.71,34.78c-13.79,30.49-10.07,65.15-3.74,96.96C29.21,176.82,33.27,192.97,37.25,209.13z"/>
			<path class="st11" d="M372.33,398.85c-2.56-8.04-5.89-15.76-9.6-23.33c2.16,7.45,3.61,15.1,3.63,23.21
				c0.07,21.87-4.15,44.04-22.43,58.26c-19.55,15.23-42.89,16.26-66.62,18.84c-31.78,3.48-63.81,4.69-95.78,4.99
				c-30.05,0.28-60.65,0.36-90.57-2.93c-19.47-2.13-39.86-5.54-56.11-17.19c-12.33-8.86-16.3-20.32-16.12-32.86
				c-5,21.31-3.01,41.25,18.07,53.36c27.44,15.77,215.74,22.38,286.08,3.63c17.59-4.69,31.64-15.14,41.76-30.39
				C373.77,440.7,377.35,414.66,372.33,398.85z"/>
		</g>
		<path class="st0" d="M104.25,38.99c0,0-62.51,7.7-70.49,77.09c0,0-3.11,21.23,1.45,52.49C35.21,168.57,23.01,69.85,104.25,38.99z"
			/>
		<path class="st0" d="M270.83,29.6c0,0,58.91,14.58,58.53,81.89c0,0,0.52,20.66-7.45,50.05C321.91,161.54,344.97,68.5,270.83,29.6z
			"/>
		<path class="st2" d="M118.03,427.76c0,0,65.14,34.87,169.19-4.21C287.22,423.55,211.36,475.77,118.03,427.76z"/>
		<path class="st0" d="M131.15,427.93c0,0,78.37,25.83,149.01-8.02C280.17,419.91,218.9,442.53,131.15,427.93z"/>
	</g>
	<g>
		<path class="st2" d="M128.3,199.2c-0.33,25.65-21.39,46.17-47.05,45.84c-25.65-0.34-46.17-21.38-45.84-47.04
			c0.33-25.65,21.4-46.18,47.05-45.84C108.1,152.49,128.63,173.55,128.3,199.2z"/>
		<path class="st2" d="M232.73,230.2c-0.26,20.36-16.98,36.66-37.34,36.39c-20.36-0.26-36.66-16.97-36.39-37.34
			c0.26-20.36,16.98-36.65,37.34-36.4C216.7,193.13,232.98,209.85,232.73,230.2z"/>
		<path class="st2" d="M330.1,194.34c-0.29,23.11-19.26,41.6-42.36,41.3c-23.11-0.3-41.59-19.26-41.29-42.37
			c0.29-23.09,19.26-41.59,42.37-41.29C311.91,152.28,330.4,171.25,330.1,194.34z"/>
		<path class="st2" d="M275.36,113.28c-0.3,23.11-19.27,41.59-42.38,41.3c-23.09-0.3-41.58-19.26-41.28-42.38
			c0.29-23.1,19.26-41.59,42.37-41.29C257.17,71.21,275.65,90.18,275.36,113.28z"/>
		<path class="st2" d="M176.55,141.91c-0.2,15.21-12.69,27.38-27.89,27.17c-15.2-0.19-27.37-12.68-27.17-27.88
			c0.2-15.21,12.69-27.37,27.89-27.18C164.58,114.22,176.73,126.7,176.55,141.91z"/>
		<g>
			<g>
				<g>
					<path class="st12" d="M119.61,197.49c-0.28,21.94-18.3,39.49-40.23,39.2c-21.93-0.29-39.48-18.29-39.21-40.23
						c0.29-21.93,18.3-39.48,40.23-39.2C102.33,157.55,119.88,175.56,119.61,197.49z"/>
					<path class="st13" d="M79.37,237.87c-22.56-0.29-40.66-18.87-40.38-41.42c0.3-22.54,18.88-40.65,41.43-40.36
						c22.54,0.29,40.64,18.88,40.36,41.41C120.48,220.05,101.9,238.17,79.37,237.87z M80.39,158.44
						c-21.25-0.27-38.77,16.8-39.03,38.04c-0.28,21.26,16.78,38.77,38.04,39.05c21.25,0.28,38.76-16.79,39.04-38.05
						C118.71,176.22,101.64,158.72,80.39,158.44z"/>
				</g>
				<g>
					<path class="st6" d="M111.59,197.66c-0.22,17.53-14.61,31.54-32.12,31.32c-17.52-0.22-31.54-14.61-31.31-32.12
						c0.23-17.51,14.6-31.53,32.12-31.31C97.81,165.77,111.83,180.15,111.59,197.66z"/>
					<path class="st14" d="M79.46,230.14c-18.13-0.23-32.7-15.18-32.47-33.3c0.24-18.14,15.18-32.7,33.32-32.47
						c18.14,0.23,32.69,15.18,32.47,33.3C112.54,215.81,97.6,230.38,79.46,230.14z M80.28,166.72
						c-16.84-0.22-30.72,13.31-30.94,30.15c-0.22,16.85,13.31,30.72,30.15,30.94c16.84,0.21,30.71-13.31,30.93-30.15
						C110.64,180.81,97.12,166.93,80.28,166.72z"/>
				</g>
				<g>
					<g>
						<path class="st15" d="M98.17,197.77c-0.12,10.06-8.38,18.1-18.44,17.97c-10.06-0.12-18.1-8.39-17.97-18.43
							c0.13-10.06,8.39-18.1,18.44-17.98C90.26,179.46,98.31,187.71,98.17,197.77z"/>
						<path class="st16" d="M94.05,197.17c-0.11,7.77-6.48,13.98-14.25,13.88c-7.77-0.1-13.99-6.48-13.89-14.25
							c0.1-7.77,6.47-13.98,14.25-13.88C87.93,183.01,94.14,189.4,94.05,197.17z"/>
						<path class="st17" d="M90.17,197.12c-0.07,5.63-4.69,10.15-10.33,10.07c-5.63-0.08-10.14-4.7-10.07-10.34
							c0.07-5.63,4.7-10.14,10.33-10.07C85.74,186.85,90.25,191.49,90.17,197.12z"/>
					</g>
					<path class="st6" d="M81.08,189.97c-0.04,3.42-2.85,6.17-6.28,6.11c-3.43-0.03-6.17-2.85-6.12-6.29
						c0.04-3.42,2.85-6.16,6.28-6.12C78.38,183.72,81.12,186.54,81.08,189.97z"/>
				</g>
				<path class="st18" d="M80.29,165.54c-17.52-0.23-31.89,13.8-32.12,31.31c-0.23,17.51,13.79,31.9,31.31,32.12
					c17.51,0.23,31.9-13.78,32.12-31.32C111.83,180.15,97.81,165.77,80.29,165.54z M81.55,210.81
					c-10.72,2.27-27.85-3.79-27.52-17.19c0.29-10.52,7.85-19.86,17.74-22.35c11.02-2.77,27.24,0.76,30.32,13.53
					C105.11,197.35,93.09,208.35,81.55,210.81z"/>
				<path class="st12" d="M88.5,161.22c0,0-1.55-0.29-4.28-0.33c-1.36-0.03-3.02,0.03-4.9,0.25c-1.87,0.24-3.97,0.57-6.2,1.21
					c-2.23,0.58-4.57,1.48-6.94,2.63c-2.33,1.22-4.73,2.63-6.96,4.42c-1.16,0.83-2.24,1.83-3.29,2.84l-0.82,0.77
					c-0.11,0.1-0.32,0.28-0.35,0.33l-0.38,0.44l-1.52,1.72l-0.76,0.86l-0.63,0.92l-1.26,1.83c-0.78,1.25-1.46,2.63-2.13,3.96
					c-1.16,2.79-2.17,5.67-2.52,8.64c-0.5,2.94-0.46,5.9-0.25,8.74c0.16,1.43,0.42,2.8,0.62,4.17c0.36,1.32,0.62,2.65,1.03,3.91
					c0.47,1.23,0.83,2.46,1.34,3.6c0.54,1.12,1.02,2.22,1.56,3.24c0.59,1,1.16,1.96,1.69,2.86c0.57,0.88,1.18,1.69,1.72,2.46
					c1.05,1.57,2.27,2.71,3.12,3.78c1.96,1.91,3.08,3,3.08,3s-0.31-0.25-0.89-0.68c-0.58-0.46-1.46-1.09-2.5-1.99
					c-0.96-1-2.29-2.06-3.5-3.57c-0.62-0.73-1.3-1.5-1.97-2.37c-0.6-0.9-1.23-1.85-1.9-2.84c-0.61-1.02-1.16-2.14-1.79-3.27
					c-0.59-1.16-1.04-2.42-1.58-3.67c-0.5-1.29-0.85-2.66-1.29-4.05c-0.3-1.41-0.6-2.86-0.8-4.35c-0.28-3-0.47-6.16,0.07-9.3
					c0.34-3.17,1.39-6.28,2.61-9.28c0.74-1.45,1.47-2.88,2.34-4.25l1.42-2.02l0.71-0.98l0.77-0.87l1.54-1.71l0.39-0.42
					c0.22-0.24,0.31-0.29,0.47-0.44l0.87-0.78c1.16-1.04,2.3-2.03,3.55-2.88c2.38-1.85,4.99-3.18,7.48-4.33
					c2.53-1.07,5.01-1.88,7.34-2.36c2.33-0.57,4.54-0.72,6.46-0.8c1.92-0.05,3.61,0.02,4.98,0.17C87,160.73,88.5,161.22,88.5,161.22
					z"/>
			</g>
			<g>
				<g>
					<g>
						<path class="st12" d="M248.67,189.42c-0.29,21.94,17.26,39.95,39.2,40.23c21.93,0.29,39.94-17.26,40.23-39.19
							c0.28-21.95-17.27-39.95-39.21-40.22C266.95,149.94,248.95,167.48,248.67,189.42z"/>
						<path class="st13" d="M287.85,230.82c-22.55-0.29-40.64-18.87-40.36-41.41c0.29-22.55,18.87-40.65,41.41-40.36
							c22.55,0.29,40.65,18.88,40.36,41.41C328.98,213,310.4,231.11,287.85,230.82z M288.88,151.39
							c-21.26-0.27-38.77,16.8-39.04,38.05c-0.28,21.25,16.79,38.76,38.04,39.05c21.25,0.27,38.77-16.8,39.03-38.05
							C327.2,169.18,310.12,151.66,288.88,151.39z"/>
					</g>
					<g>
						<path class="st6" d="M256.66,189.8c-0.22,17.52,13.79,31.91,31.31,32.12c17.52,0.23,31.9-13.78,32.13-31.31
							c0.22-17.52-13.8-31.9-31.31-32.12C271.27,158.27,256.89,172.28,256.66,189.8z"/>
						<path class="st14" d="M287.95,223.1c-18.14-0.22-32.69-15.19-32.46-33.32c0.24-18.13,15.18-32.7,33.31-32.46
							c18.14,0.24,32.7,15.18,32.47,33.32C321.03,208.76,306.09,223.33,287.95,223.1z M288.77,159.66
							c-16.84-0.21-30.72,13.32-30.94,30.15c-0.22,16.85,13.31,30.72,30.15,30.95c16.84,0.21,30.72-13.31,30.94-30.16
							C319.14,173.76,305.61,159.88,288.77,159.66z"/>
					</g>
					<g>
						<g>
							<path class="st15" d="M306.48,190.72c-0.12,10.06-8.38,18.1-18.44,17.97c-10.05-0.13-18.09-8.38-17.96-18.44
								c0.12-10.06,8.38-18.1,18.43-17.97C298.57,172.41,306.61,180.66,306.48,190.72z"/>
							<path class="st16" d="M302.36,190.11c-0.1,7.77-6.48,13.99-14.26,13.88c-7.76-0.09-13.97-6.48-13.88-14.25
								c0.1-7.78,6.48-13.99,14.25-13.88C296.23,175.96,302.45,182.34,302.36,190.11z"/>
							<path class="st17" d="M298.49,190.06c-0.08,5.63-4.7,10.14-10.34,10.07c-5.63-0.08-10.14-4.7-10.07-10.34
								c0.07-5.62,4.69-10.14,10.33-10.07C294.06,179.81,298.56,184.44,298.49,190.06z"/>
						</g>
						<path class="st6" d="M289.39,182.91c-0.04,3.42-2.86,6.17-6.29,6.13c-3.42-0.06-6.16-2.86-6.12-6.29
							c0.05-3.43,2.86-6.17,6.29-6.12C286.69,176.68,289.44,179.48,289.39,182.91z"/>
					</g>
					<path class="st18" d="M256.66,189.8c-0.22,17.52,13.79,31.91,31.31,32.12c17.52,0.23,31.9-13.78,32.13-31.31
						c0.22-17.52-13.8-31.9-31.31-32.12C271.27,158.27,256.89,172.28,256.66,189.8z M266.5,177.18c3.4-12.68,19.71-15.8,30.65-12.75
						c9.82,2.74,17.15,12.27,17.15,22.8c0,13.4-17.3,19.03-27.95,16.47C274.89,200.96,263.15,189.65,266.5,177.18z"/>
				</g>
				<path class="st12" d="M296.4,153.86c0,0-1.54-0.28-4.28-0.33c-1.36-0.03-3.02,0.04-4.9,0.25c-1.87,0.24-3.97,0.58-6.2,1.21
					c-2.23,0.57-4.57,1.48-6.94,2.62c-2.33,1.22-4.73,2.63-6.95,4.43c-1.17,0.84-2.24,1.83-3.3,2.85l-0.81,0.76
					c-0.12,0.11-0.33,0.29-0.36,0.34l-0.37,0.43l-1.52,1.72l-0.77,0.86l-0.62,0.92l-1.26,1.82c-0.78,1.26-1.45,2.63-2.13,3.97
					c-1.15,2.78-2.17,5.66-2.52,8.63c-0.5,2.94-0.45,5.91-0.25,8.75c0.16,1.41,0.43,2.79,0.63,4.16c0.35,1.33,0.62,2.66,1.02,3.91
					c0.47,1.23,0.83,2.46,1.34,3.6c0.55,1.12,1.02,2.22,1.57,3.25c0.58,0.99,1.15,1.95,1.69,2.85c0.57,0.9,1.17,1.69,1.71,2.47
					c1.07,1.58,2.28,2.71,3.14,3.77c1.95,1.92,3.08,3.01,3.08,3.01s-0.31-0.24-0.9-0.69c-0.57-0.47-1.46-1.08-2.5-1.99
					c-0.95-0.99-2.29-2.05-3.49-3.56c-0.62-0.74-1.31-1.5-1.97-2.37c-0.6-0.9-1.24-1.85-1.91-2.83c-0.62-1.02-1.16-2.14-1.78-3.27
					c-0.59-1.15-1.04-2.41-1.59-3.67c-0.5-1.29-0.84-2.67-1.29-4.04c-0.31-1.41-0.59-2.86-0.8-4.36c-0.29-3-0.48-6.15,0.07-9.3
					c0.34-3.17,1.39-6.28,2.61-9.28c0.75-1.44,1.47-2.89,2.34-4.25l1.42-2l0.71-0.99l0.78-0.87l1.55-1.71l0.38-0.42
					c0.21-0.24,0.31-0.28,0.47-0.44l0.88-0.78c1.14-1.04,2.29-2.03,3.55-2.89c2.37-1.85,4.99-3.17,7.48-4.33
					c2.54-1.06,5-1.88,7.35-2.36c2.33-0.56,4.52-0.72,6.45-0.8c1.93-0.05,3.61,0.02,4.98,0.17
					C294.9,153.38,296.4,153.86,296.4,153.86z"/>
			</g>
			<g>
				<g>
					<g>
						<path class="st12" d="M164.03,226.29c-0.22,17.53,13.81,31.93,31.34,32.15c17.52,0.22,31.91-13.8,32.14-31.32
							c0.22-17.52-13.8-31.92-31.33-32.15C178.65,194.74,164.26,208.76,164.03,226.29z"/>
						<path class="st13" d="M195.35,259.5c-18.09-0.23-32.62-15.14-32.39-33.23c0.23-18.09,15.15-32.61,33.23-32.37
							c18.1,0.22,32.63,15.13,32.39,33.23C228.35,245.21,213.44,259.74,195.35,259.5z M196.17,196.04
							c-16.92-0.23-30.85,13.36-31.07,30.27c-0.22,16.91,13.37,30.84,30.28,31.06c16.91,0.21,30.85-13.36,31.06-30.27
							C226.66,210.18,213.08,196.25,196.17,196.04z"/>
					</g>
					<g>
						<path class="st6" d="M170.42,226.59c-0.17,14.01,11.02,25.5,25.02,25.67c14,0.19,25.49-11.02,25.67-25.02
							c0.18-14-11.02-25.49-25.02-25.66C182.1,201.39,170.61,212.59,170.42,226.59z"/>
						<path class="st14" d="M195.43,253.33c-14.56-0.18-26.26-12.18-26.07-26.75c0.18-14.56,12.19-26.26,26.75-26.08
							c14.56,0.18,26.26,12.19,26.08,26.76C221.99,241.83,210,253.53,195.43,253.33z M196.09,202.64
							c-13.39-0.17-24.42,10.58-24.59,23.97c-0.17,13.39,10.57,24.41,23.97,24.58c13.38,0.17,24.41-10.58,24.59-23.97
							C220.22,213.84,209.47,202.82,196.09,202.64z"/>
					</g>
					<g>
						<g>
							<path class="st15" d="M210.24,227.33c-0.1,8.03-6.7,14.46-14.73,14.36c-8.03-0.1-14.46-6.7-14.35-14.73
								c0.1-8.03,6.71-14.47,14.73-14.36C203.91,212.69,210.35,219.3,210.24,227.33z"/>
							<path class="st16" d="M206.95,226.84c-0.09,6.21-5.19,11.18-11.39,11.1c-6.2-0.08-11.18-5.18-11.09-11.39
								c0.08-6.21,5.17-11.17,11.38-11.09C202.06,215.53,207.02,220.63,206.95,226.84z"/>
							<path class="st17" d="M203.86,226.81c-0.06,4.5-3.76,8.1-8.26,8.04c-4.5-0.06-8.11-3.76-8.05-8.26
								c0.06-4.5,3.75-8.11,8.26-8.05C200.31,218.61,203.91,222.3,203.86,226.81z"/>
						</g>
						<path class="st6" d="M196.59,221.09c-0.04,2.74-2.29,4.93-5.03,4.9c-2.73-0.04-4.93-2.29-4.89-5.03
							c0.04-2.73,2.29-4.92,5.02-4.89C194.42,216.1,196.62,218.35,196.59,221.09z"/>
					</g>
					<path class="st18" d="M170.42,226.59c-0.17,14.01,11.02,25.5,25.02,25.67c14,0.19,25.49-11.02,25.67-25.02
						c0.18-14-11.02-25.49-25.02-25.66C182.1,201.39,170.61,212.59,170.42,226.59z M178.29,216.5c2.73-10.13,15.75-12.62,24.5-10.19
						c7.85,2.2,13.7,9.82,13.7,18.22c0,10.71-13.82,15.2-22.33,13.16C185,235.51,175.62,226.47,178.29,216.5z"/>
				</g>
				<path class="st12" d="M202.2,197.88c0,0-1.25-0.23-3.43-0.27c-1.09-0.03-2.41,0.03-3.91,0.19c-1.49,0.21-3.17,0.47-4.95,0.97
					c-1.78,0.46-3.65,1.19-5.53,2.1c-1.87,0.98-3.78,2.11-5.57,3.55c-0.93,0.67-1.78,1.45-2.62,2.28l-0.66,0.6
					c-0.09,0.08-0.26,0.22-0.28,0.27l-0.3,0.35l-1.22,1.37l-0.61,0.71l-0.51,0.71l-1,1.46c-0.62,1-1.17,2.11-1.71,3.18
					c-0.92,2.23-1.72,4.53-2.01,6.9c-0.4,2.35-0.37,4.71-0.2,6.98c0.13,1.15,0.34,2.25,0.5,3.34c0.29,1.05,0.5,2.12,0.82,3.12
					c0.37,0.98,0.66,1.96,1.07,2.87c0.44,0.9,0.82,1.78,1.25,2.6c0.48,0.8,0.93,1.55,1.35,2.29c0.46,0.7,0.95,1.34,1.37,1.96
					c0.84,1.26,1.81,2.17,2.5,3.02c1.57,1.54,2.46,2.4,2.46,2.4s-0.25-0.19-0.71-0.55c-0.45-0.37-1.17-0.86-2-1.59
					c-0.76-0.79-1.83-1.64-2.79-2.83c-0.49-0.6-1.04-1.21-1.57-1.9c-0.49-0.73-0.99-1.48-1.53-2.27c-0.48-0.83-0.94-1.72-1.43-2.62
					c-0.47-0.92-0.83-1.92-1.27-2.94c-0.38-1.03-0.67-2.12-1.02-3.23c-0.25-1.13-0.47-2.29-0.64-3.48c-0.23-2.4-0.37-4.92,0.05-7.43
					c0.29-2.54,1.11-5.03,2.09-7.43c0.58-1.14,1.17-2.29,1.87-3.39l1.14-1.61l0.56-0.79l0.62-0.69l1.24-1.37l0.32-0.34
					c0.17-0.19,0.25-0.22,0.37-0.34l0.71-0.63c0.9-0.82,1.83-1.62,2.83-2.3c1.9-1.48,3.99-2.55,5.98-3.46c2.03-0.85,4-1.5,5.87-1.89
					c1.86-0.45,3.62-0.58,5.15-0.65c1.55-0.04,2.89,0.02,3.99,0.13C200.99,197.48,202.2,197.88,202.2,197.88z"/>
			</g>
			<g>
				<g>
					<g>
						<path class="st12" d="M196.82,111.48c-0.24,19.23,15.14,35.03,34.38,35.27c19.24,0.24,35.03-15.15,35.27-34.38
							c0.25-19.24-15.14-35.02-34.37-35.27C212.85,76.86,197.07,92.25,196.82,111.48z"/>
						<path class="st13" d="M231.18,147.92c-19.84-0.25-35.79-16.6-35.53-36.46c0.26-19.85,16.61-35.78,36.46-35.53
							c19.85,0.25,35.79,16.61,35.53,36.46C267.39,132.24,251.03,148.18,231.18,147.92z M232.08,78.28
							c-18.56-0.23-33.85,14.67-34.08,33.21c-0.25,18.55,14.66,33.85,33.21,34.08c18.55,0.24,33.85-14.65,34.08-33.21
							C265.53,93.81,250.63,78.51,232.08,78.28z"/>
					</g>
					<g>
						<path class="st6" d="M203.84,111.81c-0.2,15.35,12.09,27.97,27.44,28.17c15.36,0.19,27.98-12.1,28.18-27.46
							c0.19-15.36-12.1-27.98-27.46-28.17C216.64,84.16,204.03,96.45,203.84,111.81z"/>
						<path class="st14" d="M231.26,141.15c-15.97-0.2-28.81-13.36-28.6-29.36c0.21-15.97,13.38-28.81,29.36-28.61
							c15.98,0.22,28.81,13.39,28.61,29.37C260.43,128.53,247.25,141.35,231.26,141.15z M231.98,85.53
							c-14.68-0.19-26.79,11.61-26.97,26.29c-0.19,14.69,11.61,26.79,26.29,26.98c14.69,0.19,26.79-11.6,26.98-26.29
							C258.47,97.83,246.67,85.72,231.98,85.53z"/>
					</g>
					<g>
						<g>
							<path class="st15" d="M247.52,112.62c-0.11,8.81-7.36,15.86-16.17,15.76c-8.81-0.12-15.86-7.35-15.75-16.17
								c0.12-8.82,7.35-15.86,16.16-15.76C240.58,96.57,247.63,103.8,247.52,112.62z"/>
							<path class="st16" d="M243.89,112.08c-0.08,6.82-5.67,12.26-12.49,12.18c-6.81-0.09-12.27-5.69-12.17-12.49
								c0.09-6.81,5.68-12.27,12.49-12.18C238.53,99.67,243.99,105.26,243.89,112.08z"/>
							<path class="st17" d="M240.51,112.04c-0.06,4.93-4.12,8.9-9.06,8.83c-4.94-0.07-8.89-4.12-8.83-9.06
								c0.07-4.95,4.13-8.89,9.07-8.82C236.62,103.05,240.57,107.11,240.51,112.04z"/>
						</g>
						<path class="st6" d="M232.53,105.77c-0.04,3.01-2.51,5.41-5.52,5.38c-3-0.03-5.41-2.51-5.37-5.51
							c0.04-3.01,2.5-5.41,5.51-5.37S232.57,102.77,232.53,105.77z"/>
					</g>
					<path class="st18" d="M203.84,111.81c-0.2,15.35,12.09,27.97,27.44,28.17c15.36,0.19,27.98-12.1,28.18-27.46
						c0.19-15.36-12.1-27.98-27.46-28.17C216.64,84.16,204.03,96.45,203.84,111.81z M212.46,100.74
						c2.97-11.11,17.28-13.85,26.88-11.17c8.61,2.4,15.04,10.76,15.04,20c-0.01,11.75-15.17,16.68-24.5,14.44
						C219.82,121.6,209.53,111.68,212.46,100.74z"/>
				</g>
				<path class="st12" d="M238.68,80.3c0,0-1.37-0.25-3.76-0.29c-1.19-0.04-2.63,0.03-4.29,0.2c-1.64,0.23-3.49,0.52-5.44,1.07
					c-1.96,0.51-4.01,1.3-6.09,2.31c-2.04,1.07-4.14,2.31-6.11,3.88c-1.01,0.73-1.95,1.6-2.88,2.49l-0.71,0.67
					c-0.1,0.1-0.29,0.25-0.31,0.3l-0.33,0.38l-1.35,1.52l-0.67,0.75l-0.54,0.8l-1.1,1.6c-0.7,1.11-1.29,2.31-1.88,3.48
					c-1,2.44-1.89,4.97-2.19,7.57c-0.44,2.58-0.42,5.18-0.23,7.67c0.14,1.23,0.38,2.45,0.55,3.65c0.32,1.16,0.55,2.33,0.91,3.42
					c0.42,1.08,0.73,2.18,1.18,3.16c0.48,0.98,0.9,1.95,1.37,2.84c0.51,0.87,1.01,1.7,1.48,2.51c0.5,0.77,1.04,1.47,1.51,2.16
					c0.93,1.37,1.99,2.37,2.74,3.31c1.73,1.68,2.7,2.63,2.7,2.63s-0.27-0.22-0.78-0.6c-0.5-0.41-1.28-0.95-2.2-1.74
					c-0.83-0.87-1.99-1.8-3.06-3.12c-0.54-0.65-1.14-1.32-1.72-2.08c-0.54-0.79-1.09-1.62-1.67-2.49c-0.54-0.9-1.02-1.88-1.58-2.87
					c-0.51-1-0.9-2.11-1.39-3.22c-0.42-1.12-0.74-2.33-1.12-3.54c-0.27-1.24-0.52-2.52-0.71-3.83c-0.25-2.62-0.41-5.39,0.06-8.15
					c0.31-2.79,1.22-5.5,2.29-8.13c0.66-1.27,1.29-2.53,2.06-3.74l1.25-1.75l0.61-0.87l0.68-0.76l1.36-1.5l0.33-0.37
					c0.18-0.21,0.28-0.25,0.42-0.39l0.76-0.68c1.01-0.91,2.02-1.79,3.11-2.53c2.08-1.62,4.38-2.79,6.56-3.8
					c2.22-0.95,4.39-1.65,6.45-2.07c2.03-0.49,3.97-0.62,5.65-0.71c1.69-0.04,3.17,0.03,4.37,0.15
					C237.37,79.87,238.68,80.3,238.68,80.3z"/>
			</g>
			<g>
				<g>
					<g>
						<path class="st12" d="M125.25,137.15c-0.19,13.74,10.81,25.02,24.55,25.2c13.73,0.17,25.02-10.81,25.2-24.55
							c0.18-13.75-10.82-25.02-24.55-25.2C136.7,112.42,125.41,123.41,125.25,137.15z"/>
						<path class="st13" d="M149.79,163.18c-14.18-0.17-25.57-11.87-25.38-26.04c0.17-14.19,11.86-25.57,26.04-25.38
							c14.18,0.18,25.57,11.86,25.38,26.05C175.66,151.98,163.97,163.37,149.79,163.18z M150.43,113.43
							c-13.25-0.17-24.18,10.47-24.34,23.74c-0.17,13.25,10.48,24.17,23.73,24.34c13.25,0.17,24.17-10.48,24.34-23.73
							C174.33,124.53,163.69,113.61,150.43,113.43z"/>
					</g>
					<g>
						<path class="st6" d="M130.26,137.39c-0.14,10.97,8.63,19.98,19.6,20.11c10.98,0.15,19.99-8.63,20.13-19.6
							c0.14-10.97-8.64-19.99-19.61-20.12C139.4,117.64,130.4,126.41,130.26,137.39z"/>
						<path class="st14" d="M149.85,158.35c-11.42-0.14-20.59-9.55-20.44-20.97c0.15-11.42,9.55-20.59,20.97-20.44
							c11.42,0.14,20.59,9.55,20.44,20.97C170.68,149.33,161.27,158.5,149.85,158.35z M150.36,118.62
							c-10.49-0.14-19.14,8.28-19.27,18.77c-0.13,10.5,8.3,19.15,18.79,19.28c10.49,0.13,19.14-8.29,19.27-18.79
							C169.29,127.4,160.85,118.74,150.36,118.62z"/>
					</g>
					<g>
						<g>
							<path class="st15" d="M161.46,137.97c-0.08,6.29-5.25,11.33-11.55,11.25c-6.29-0.08-11.34-5.25-11.25-11.55
								c0.08-6.3,5.24-11.34,11.56-11.25C156.5,126.5,161.54,131.67,161.46,137.97z"/>
							<path class="st16" d="M158.88,137.58c-0.07,4.86-4.06,8.77-8.93,8.7c-4.86-0.06-8.76-4.06-8.7-8.93
								c0.06-4.86,4.06-8.77,8.93-8.7C155.05,128.72,158.94,132.72,158.88,137.58z"/>
							<path class="st17" d="M156.45,137.55c-0.04,3.53-2.94,6.36-6.48,6.31c-3.52-0.04-6.35-2.94-6.31-6.47
								c0.05-3.53,2.95-6.36,6.48-6.31C153.68,131.12,156.5,134.02,156.45,137.55z"/>
						</g>
						<path class="st6" d="M150.75,133.07c-0.02,2.15-1.79,3.87-3.94,3.83c-2.14-0.03-3.87-1.79-3.83-3.94
							c0.03-2.14,1.79-3.87,3.93-3.84C149.07,129.16,150.78,130.93,150.75,133.07z"/>
					</g>
					<path class="st18" d="M130.26,137.39c-0.14,10.97,8.63,19.98,19.6,20.11c10.98,0.15,19.99-8.63,20.13-19.6
						c0.14-10.97-8.64-19.99-19.61-20.12C139.4,117.64,130.4,126.41,130.26,137.39z M136.42,129.48c2.13-7.94,12.35-9.9,19.2-7.98
						c6.16,1.72,10.74,7.7,10.74,14.28c0,8.4-10.82,11.92-17.5,10.32C141.68,144.38,134.31,137.31,136.42,129.48z"/>
				</g>
				<path class="st12" d="M155.15,114.87c0,0-0.97-0.16-2.67-0.2c-0.86-0.02-1.89,0.01-3.07,0.15c-1.17,0.16-2.49,0.37-3.87,0.76
					c-1.41,0.36-2.87,0.93-4.35,1.65c-1.46,0.76-2.96,1.65-4.37,2.78c-0.73,0.53-1.4,1.14-2.07,1.79l-0.51,0.47
					c-0.07,0.06-0.2,0.17-0.22,0.21l-0.24,0.26l-0.96,1.08l-0.48,0.55l-0.39,0.56l-0.79,1.15c-0.49,0.79-0.91,1.66-1.33,2.49
					c-0.73,1.74-1.37,3.55-1.58,5.41c-0.31,1.84-0.29,3.69-0.16,5.48c0.1,0.9,0.28,1.75,0.39,2.6c0.23,0.84,0.39,1.67,0.64,2.46
					c0.29,0.77,0.53,1.54,0.85,2.25c0.33,0.69,0.63,1.39,0.98,2.03c0.37,0.63,0.72,1.22,1.05,1.79c0.36,0.55,0.75,1.05,1.08,1.54
					c0.66,0.99,1.42,1.7,1.96,2.37c1.23,1.2,1.93,1.88,1.93,1.88s-0.2-0.15-0.56-0.43c-0.36-0.29-0.92-0.68-1.58-1.25
					c-0.59-0.62-1.42-1.28-2.18-2.21c-0.37-0.48-0.82-0.96-1.23-1.49c-0.38-0.57-0.78-1.17-1.2-1.79c-0.38-0.64-0.73-1.35-1.11-2.04
					c-0.37-0.72-0.66-1.51-1-2.3c-0.3-0.8-0.53-1.66-0.8-2.54c-0.2-0.89-0.38-1.79-0.5-2.73c-0.18-1.87-0.3-3.85,0.04-5.83
					c0.22-1.98,0.87-3.93,1.64-5.79c0.47-0.91,0.92-1.82,1.46-2.68l0.9-1.26l0.43-0.62l0.5-0.54l0.96-1.07l0.25-0.27
					c0.13-0.15,0.2-0.18,0.29-0.27l0.55-0.49c0.72-0.65,1.44-1.29,2.22-1.81c1.49-1.15,3.13-2,4.69-2.71
					c1.59-0.67,3.13-1.17,4.6-1.47c1.46-0.35,2.83-0.46,4.04-0.5c1.21-0.03,2.26,0.02,3.12,0.1
					C154.21,114.57,155.15,114.87,155.15,114.87z"/>
			</g>
		</g>
	</g>
</g>
</svg>
